<?xml version="1.0" encoding="UTF-8"?>
<svg xmlns="http://www.w3.org/2000/svg" width="800" height="200" viewBox="0 0 800 200">
<rect x="0" y="0" width="100%" height="100%" fill="white"/>
<line x1="60" y1="100" x2="760" y2="100" stroke="black" stroke-width="2"/>
<polygon points="760,100 750,95 750,105" fill="black"/>
<line x1="140.00" y1="92" x2="140.00" y2="108" stroke="black" stroke-width="1"/>
<text x="140.00" y="88" text-anchor="middle" font-size="10" fill="black">10.00</text>
<line x1="324.09" y1="92" x2="324.09" y2="108" stroke="black" stroke-width="1"/>
<text x="324.09" y="88" text-anchor="middle" font-size="10" fill="black">40.00</text>
<line x1="502.05" y1="92" x2="502.05" y2="108" stroke="black" stroke-width="1"/>
<text x="502.05" y="88" text-anchor="middle" font-size="10" fill="black">69.00</text>
<line x1="680.00" y1="92" x2="680.00" y2="108" stroke="black" stroke-width="1"/>
<text x="680.00" y="88" text-anchor="middle" font-size="10" fill="black">98.00</text>
<circle cx="140.00" cy="100.00" r="3" fill="blue" stroke="black" stroke-width="1"/>
<text x="140.00" y="122.00" text-anchor="middle" font-size="10" fill="black">10.00</text>
<circle cx="176.82" cy="100.00" r="3" fill="blue" stroke="black" stroke-width="1"/>
<text x="176.82" y="122.00" text-anchor="middle" font-size="10" fill="black">16.00</text>
<circle cx="440.68" cy="100.00" r="3" fill="blue" stroke="black" stroke-width="1"/>
<text x="440.68" y="122.00" text-anchor="middle" font-size="10" fill="black">59.00</text>
<circle cx="446.82" cy="100.00" r="3" fill="blue" stroke="black" stroke-width="1"/>
<text x="446.82" y="138.00" text-anchor="middle" font-size="10" fill="black">60.00</text>
<circle cx="465.23" cy="100.00" r="3" fill="blue" stroke="black" stroke-width="1"/>
<text x="465.23" y="122.00" text-anchor="middle" font-size="10" fill="black">63.00</text>
<circle cx="551.14" cy="100.00" r="3" fill="blue" stroke="black" stroke-width="1"/>
<text x="551.14" y="122.00" text-anchor="middle" font-size="10" fill="black">77.00</text>
<circle cx="563.41" cy="100.00" r="3" fill="blue" stroke="black" stroke-width="1"/>
<text x="563.41" y="122.00" text-anchor="middle" font-size="10" fill="black">79.00</text>
<circle cx="587.95" cy="100.00" r="3" fill="blue" stroke="black" stroke-width="1"/>
<text x="587.95" y="122.00" text-anchor="middle" font-size="10" fill="black">83.00</text>
<circle cx="673.86" cy="100.00" r="3" fill="blue" stroke="black" stroke-width="1"/>
<text x="673.86" y="122.00" text-anchor="middle" font-size="10" fill="black">97.00</text>
<circle cx="680.00" cy="100.00" r="3" fill="blue" stroke="black" stroke-width="1"/>
<text x="680.00" y="138.00" text-anchor="middle" font-size="10" fill="black">98.00</text>
</svg>
